<?xml version="1.0" standalone="no"?><!DOCTYPE svg PUBLIC "-//W3C//DTD SVG 1.1//EN" "http://www.w3.org/Graphics/SVG/1.1/DTD/svg11.dtd"><svg t="1711176234753" class="icon" viewBox="0 0 1066 1024" version="1.1" xmlns="http://www.w3.org/2000/svg" p-id="1199" xmlns:xlink="http://www.w3.org/1999/xlink" width="208.203125" height="200"><path d="M590.250667 64.896a85.333333 85.333333 0 0 0-114.816 0L34.816 465.493333a42.666667 42.666667 0 1 0 57.386667 63.146667l13.952-12.714667V853.333333a128 128 0 0 0 128 128h597.333333a128 128 0 0 0 128-128v-337.408l13.994667 12.672a42.666667 42.666667 0 1 0 57.386666-63.146666L590.250667 64.938667z m283.904 373.461333V853.333333a42.666667 42.666667 0 0 1-42.666667 42.666667h-128v-170.666667a170.666667 170.666667 0 0 0-341.333333 0v170.666667h-128a42.666667 42.666667 0 0 1-42.666667-42.666667v-414.976l341.333333-310.314666 341.333334 310.314666z m-256 286.976v170.666667h-170.666667v-170.666667a85.333333 85.333333 0 1 1 170.666667 0z" p-id="1200"></path></svg>