<?xml version="1.0" standalone="no"?><!DOCTYPE svg PUBLIC "-//W3C//DTD SVG 1.1//EN" "http://www.w3.org/Graphics/SVG/1.1/DTD/svg11.dtd"><svg t="1711176374887" class="icon" viewBox="0 0 1066 1024" version="1.1" xmlns="http://www.w3.org/2000/svg" p-id="2872" xmlns:xlink="http://www.w3.org/1999/xlink" width="208.203125" height="200"><path d="M404.821333 469.333333a42.666667 42.666667 0 0 1 42.666667 42.666667v170.666667a42.666667 42.666667 0 1 1-85.333333 0v-170.666667a42.666667 42.666667 0 0 1 42.666666-42.666667zM703.488 512a42.666667 42.666667 0 1 0-85.333333 0v170.666667a42.666667 42.666667 0 1 0 85.333333 0v-170.666667z" p-id="2873"></path><path d="M741.888 213.333333a213.418667 213.418667 0 0 0-418.133333 0h-217.6a42.666667 42.666667 0 0 0 0 85.333334h85.333333v554.666666a128 128 0 0 0 128 128h426.666667a128 128 0 0 0 128-128V298.666667h85.333333a42.666667 42.666667 0 1 0 0-85.333334h-217.6z m-209.066667-85.333333c55.722667 0 103.168 35.626667 120.746667 85.333333H412.117333a128.042667 128.042667 0 0 1 120.746667-85.333333z m-256 170.666667h512v554.666666a42.666667 42.666667 0 0 1-42.666666 42.666667h-426.666667a42.666667 42.666667 0 0 1-42.666667-42.666667V298.666667z" p-id="2874"></path></svg>