<?xml version="1.0" standalone="no"?><!DOCTYPE svg PUBLIC "-//W3C//DTD SVG 1.1//EN" "http://www.w3.org/Graphics/SVG/1.1/DTD/svg11.dtd"><svg t="1711176262127" class="icon" viewBox="0 0 1024 1024" version="1.1" xmlns="http://www.w3.org/2000/svg" p-id="1366" xmlns:xlink="http://www.w3.org/1999/xlink" width="200" height="200"><path d="M682.666667 469.333333a170.666667 170.666667 0 1 1-341.333334 0 170.666667 170.666667 0 0 1 341.333334 0z m-85.333334 0a85.333333 85.333333 0 1 0-170.666666 0 85.333333 85.333333 0 0 0 170.666666 0z" p-id="1367"></path><path d="M938.666667 469.333333c0 285.056-297.6 451.114667-395.690667 498.090667a71.04 71.04 0 0 1-61.952 0C382.976 920.448 85.333333 754.389333 85.333333 469.333333 85.333333 233.685333 276.352 42.666667 512 42.666667s426.666667 191.018667 426.666667 426.666666z m-85.333334 0a341.333333 341.333333 0 1 0-682.666666 0c0 132.437333 82.773333 238.506667 181.333333 317.354667a878.677333 878.677333 0 0 0 133.504 87.338667 56.32 56.32 0 0 0 52.992 0c36.778667-19.626667 85.376-48.810667 133.546667-87.338667C770.56 707.84 853.333333 601.770667 853.333333 469.333333z" p-id="1368"></path></svg>