<?xml version="1.0" standalone="no"?><!DOCTYPE svg PUBLIC "-//W3C//DTD SVG 1.1//EN" "http://www.w3.org/Graphics/SVG/1.1/DTD/svg11.dtd"><svg t="1711176295219" class="icon" viewBox="0 0 1066 1024" version="1.1" xmlns="http://www.w3.org/2000/svg" p-id="1868" xmlns:xlink="http://www.w3.org/1999/xlink" width="208.203125" height="200"><path d="M781.482667 506.88a298.666667 298.666667 0 1 0-497.28 0 331.264 331.264 0 0 0-178.048 293.76A180.693333 180.693333 0 0 0 286.890667 981.333333h491.904a180.693333 180.693333 0 0 0 180.693333-180.693333 331.264 331.264 0 0 0-178.005333-293.802667zM746.154667 341.333333a213.333333 213.333333 0 1 1-426.666667 0 213.333333 213.333333 0 0 1 426.666667 0z m-24.746667 231.594667c89.6 36.736 152.746667 124.842667 152.746667 227.712 0 52.650667-42.666667 95.36-95.36 95.36H286.848c-52.650667 0-95.36-42.666667-95.36-95.36 0-102.826667 63.146667-190.976 152.746667-227.712A297.429333 297.429333 0 0 0 532.821333 640a297.386667 297.386667 0 0 0 188.586667-67.072z" p-id="1869"></path></svg>