<?xml version="1.0" standalone="no"?><!DOCTYPE svg PUBLIC "-//W3C//DTD SVG 1.1//EN" "http://www.w3.org/Graphics/SVG/1.1/DTD/svg11.dtd"><svg t="1711176334658" class="icon" viewBox="0 0 1066 1024" version="1.1" xmlns="http://www.w3.org/2000/svg" p-id="2705" xmlns:xlink="http://www.w3.org/1999/xlink" width="208.203125" height="200"><path d="M628.522667 310.528a170.666667 170.666667 0 0 0 92.458666 69.888l168.746667 52.352-110.848 151.637333a170.666667 170.666667 0 0 0-32.853333 105.173334l4.906666 186.965333-158.293333-59.306667a170.666667 170.666667 0 0 0-119.68 0l-158.293333 59.306667 4.906666-186.965333a170.666667 170.666667 0 0 0-32.853333-105.173334l-110.848-151.637333 168.746667-52.352a170.666667 170.666667 0 0 0 92.458666-69.888l95.744-146.986667 95.701334 146.986667z m-24.192-193.578667a85.333333 85.333333 0 0 0-143.018667 0L365.568 263.978667a85.333333 85.333333 0 0 1-46.208 34.944L150.528 351.274667a85.333333 85.333333 0 0 0-43.562667 131.84l110.805334 151.637333a85.333333 85.333333 0 0 1 16.426666 52.608l-4.864 186.922667a85.333333 85.333333 0 0 0 115.2 82.176l158.293334-59.306667a85.333333 85.333333 0 0 1 59.861333 0l158.293333 59.306667a85.333333 85.333333 0 0 0 115.2-82.176l-4.864-186.922667a85.376 85.376 0 0 1 16.384-52.608l110.890667-151.594667a85.333333 85.333333 0 0 0-43.648-131.84l-168.704-52.394666a85.333333 85.333333 0 0 1-46.250667-34.944l-95.701333-147.029334z" p-id="2706"></path></svg>