<?xml version="1.0" standalone="no"?><!DOCTYPE svg PUBLIC "-//W3C//DTD SVG 1.1//EN" "http://www.w3.org/Graphics/SVG/1.1/DTD/svg11.dtd"><svg t="1711176275625" class="icon" viewBox="0 0 1066 1024" version="1.1" xmlns="http://www.w3.org/2000/svg" p-id="1534" xmlns:xlink="http://www.w3.org/1999/xlink" width="208.203125" height="200"><path d="M148.821333 213.333333v512h223.445334a170.666667 170.666667 0 0 1 113.706666 43.392l46.848 41.856 46.890667-41.856A170.666667 170.666667 0 0 1 693.333333 725.333333h223.445334V213.333333h-768z m-85.333333 0a85.333333 85.333333 0 0 1 85.333333-85.333333h768a85.333333 85.333333 0 0 1 85.333334 85.333333v512a85.333333 85.333333 0 0 1-85.333334 85.333334h-223.445333a85.333333 85.333333 0 0 0-56.832 21.674666l-46.848 41.898667a85.333333 85.333333 0 0 1-113.706667 0l-46.890666-41.898667A85.333333 85.333333 0 0 0 372.266667 810.666667H148.821333a85.333333 85.333333 0 0 1-85.333333-85.333334V213.333333z m234.666667 320a64 64 0 1 0 0-128 64 64 0 0 0 0 128z m298.666666-64a64 64 0 1 1-128 0 64 64 0 0 1 128 0z m170.666667 64a64 64 0 1 0 0-128 64 64 0 0 0 0 128z" p-id="1535"></path></svg>