<?xml version="1.0" standalone="no"?><!DOCTYPE svg PUBLIC "-//W3C//DTD SVG 1.1//EN" "http://www.w3.org/Graphics/SVG/1.1/DTD/svg11.dtd"><svg t="1711176311106" class="icon" viewBox="0 0 1066 1024" version="1.1" xmlns="http://www.w3.org/2000/svg" p-id="2203" xmlns:xlink="http://www.w3.org/1999/xlink" width="208.203125" height="200"><path d="M191.488 512a213.333333 213.333333 0 1 1 426.666667 0 213.333333 213.333333 0 0 1-426.666667 0z m213.333333-128a128 128 0 1 0 0 256 128 128 0 0 0 0-256zM660.821333 298.666667a42.666667 42.666667 0 1 0 0 85.333333h170.666667a42.666667 42.666667 0 1 0 0-85.333333h-170.666667z" p-id="2204"></path><path d="M20.821333 256a128 128 0 0 1 128-128h768a128 128 0 0 1 128 128v512a128 128 0 0 1-128 128h-768a128 128 0 0 1-128-128V256z m128-42.666667a42.666667 42.666667 0 0 0-42.666666 42.666667v512a42.666667 42.666667 0 0 0 42.666666 42.666667h768a42.666667 42.666667 0 0 0 42.666667-42.666667V256a42.666667 42.666667 0 0 0-42.666667-42.666667h-768z" p-id="2205"></path></svg>