<?xml version="1.0" standalone="no"?><!DOCTYPE svg PUBLIC "-//W3C//DTD SVG 1.1//EN" "http://www.w3.org/Graphics/SVG/1.1/DTD/svg11.dtd"><svg t="1711176301786" class="icon" viewBox="0 0 1066 1024" version="1.1" xmlns="http://www.w3.org/2000/svg" p-id="2035" xmlns:xlink="http://www.w3.org/1999/xlink" width="208.203125" height="200"><path d="M532.812897 682.672071a170.663964 170.663964 0 1 0 0-341.327929 170.663964 170.663964 0 0 0 0 341.327929z m85.331982-170.663964a85.331982 85.331982 0 1 1-170.663964 0 85.331982 85.331982 0 0 1 170.663964 0z" p-id="2036"></path><path d="M532.812897 0.016213c-16.639737 0-33.108809 0.810654-49.364552 2.34663-58.495074 5.589245-95.315824 56.745768-95.315824 108.883609v2.986619a27.647562 27.647562 0 0 1-47.14592 19.626356c-37.332742-37.119412-100.478409-46.420598-145.149702-7.295884-27.306234 23.892955-52.095175 50.687197-73.85483 79.870735-31.060842 41.684673-21.546326 96.382474 11.477151 129.192621l1.791972 1.791972a17.493056 17.493056 0 0 1-12.373138 29.866194c-47.017922 0-92.585201 33.151475-98.643771 85.417314a516.898482 516.898482 0 0 0-1.023984 108.755611c5.589245 58.452408 56.660436 95.230492 108.798278 95.230492h3.541277c24.404947 0 36.60742 29.610198 19.285028 46.804593-37.332742 37.162078-46.889924 100.393077-7.765211 145.149701 23.892955 27.3489 50.644531 52.180507 79.785404 73.940163 41.642007 31.018176 96.254476 21.759655 129.235287-11.093158l2.133299-2.090633a17.578388 17.578388 0 0 1 29.90886 12.458469c0 47.103254 33.151475 92.713199 85.45998 98.729104a516.941148 516.941148 0 0 0 117.758136 0.085332c52.735165-5.973239 86.185302-52.052509 86.185302-99.497092 0-16.426407 19.79702-24.660943 31.444835-13.098459l1.834638 1.834638c33.279473 33.108809 88.574598 42.452661 130.429935 10.794495 29.012874-21.930319 55.679118-46.93259 79.358743-74.409488 38.484724-44.543295 28.927542-107.091638-8.106538-143.912388a26.70891 26.70891 0 0 1 18.858368-45.652611h2.98662c51.753847 0 102.398379-36.522088 108.030289-94.50517a517.111812 517.111812 0 0 0-1.06665-110.334253c-6.058571-51.753847-51.199189-84.563994-97.833117-84.563994a16.639737 16.639737 0 0 1-11.733148-28.372884l2.090634-2.090634c32.682149-32.511485 42.153999-86.52663 11.690481-127.912641a514.765183 514.765183 0 0 0-73.385504-80.340062c-44.841957-39.764704-108.670279-30.463518-146.34435 6.997223a28.330218 28.330218 0 0 1-48.255236-20.053016v-3.583943c0-52.564501-37.076746-104.105018-96.083812-109.651597A517.709136 517.709136 0 0 0 532.812897 0.016213z m-41.215347 87.294618a432.291822 432.291822 0 0 1 81.833371-0.042666c8.661196 0.810654 18.773036 9.301186 18.773036 24.703609v3.541277c0 101.118399 122.110067 151.890928 193.788931 80.596057 10.666498-10.666498 23.423629-9.087856 29.567532-3.626609 22.698307 20.053016 43.220649 42.580659 61.225698 66.985606 1.407978 1.962636 2.090634 4.266599 1.749305 7.253219a16.554405 16.554405 0 0 1-4.906589 9.642514l-2.047967 2.047967c-64.510979 64.169651-19.071698 174.247908 71.892195 174.247908a15.359757 15.359757 0 0 1 9.727846 3.285281c2.1333 1.70664 3.114617 3.711941 3.370613 5.887907a431.5665 431.5665 0 0 1 0.85332 92.115875c-0.767988 7.935874-8.575864 17.407724-23.039635 17.407724h-2.98662c-100.009083 0-149.928293 121.000751-79.060081 191.527634 10.069174 10.026508 8.661196 21.930319 3.711941 27.647563a429.262537 429.262537 0 0 1-66.260284 62.079017c-3.669275 2.815955-11.647816 3.925271-18.815702-3.19995l-1.834638-1.834637c-65.44963-65.108302-176.935865-18.73037-176.935865 73.598834a17.151728 17.151728 0 0 1-3.711941 10.879828 10.069174 10.069174 0 0 1-6.826559 3.839939 431.35317 431.35317 0 0 1-98.302444-0.042666 9.429184 9.429184 0 0 1-6.399898-3.626609 16.255743 16.255743 0 0 1-3.498612-10.367836c0-91.518551-110.547583-137.512489-175.442555-72.958845l-2.1333 2.1333c-6.869225 6.826559-14.506437 5.717243-17.962382 3.157283-24.319615-18.175712-46.676594-38.826052-66.601612-61.695023-5.162585-5.930573-6.655895-18.175712 3.711941-28.500882 71.294871-70.910877 21.077-192.63695-79.486741-192.63695h-3.541277c-14.933097 0-23.039635-9.813178-23.892955-18.047714a432.505152 432.505152 0 0 1 0.853319-90.878561 9.386518 9.386518 0 0 1 3.62661-6.314567 16.213077 16.213077 0 0 1 10.325169-3.455945c91.731881 0 137.555155-111.059575 72.532185-175.741218l-1.834637-1.791971a17.23706 17.23706 0 0 1-5.119919-10.11184 10.282504 10.282504 0 0 1 1.919969-7.594546c18.133046-24.319615 38.826052-46.676594 61.609692-66.644279 5.973239-5.247917 18.346376-6.741227 28.756878 3.62661 71.252205 70.868211 192.679616 20.394344 192.679615-80.126732v-2.986619c0-15.018429 9.813178-23.167633 18.133047-23.978287z" p-id="2037"></path></svg>