<?xml version="1.0" standalone="no"?><!DOCTYPE svg PUBLIC "-//W3C//DTD SVG 1.1//EN" "http://www.w3.org/Graphics/SVG/1.1/DTD/svg11.dtd"><svg t="1711176317273" class="icon" viewBox="0 0 1066 1024" version="1.1" xmlns="http://www.w3.org/2000/svg" p-id="2371" xmlns:xlink="http://www.w3.org/1999/xlink" width="208.203125" height="200"><path d="M747.477333 349.866667c8.106667-0.682667 16.725333-1.408 25.770667-2.048l1.877333-0.128c97.28-6.570667 239.445333-2.261333 226.176 175.573333l-0.042666 0.682667c-8.021333 107.392-30.506667 408.746667-213.461334 449.28-112.64 24.917333-486.784-15.274667-509.013333-17.706667H148.821333a85.333333 85.333333 0 0 1-85.333333-85.333333V426.666667a85.333333 85.333333 0 0 1 85.333333-85.333334h128c1.152 0 2.304 0 3.413334 0.085334 77.781333-32.256 107.818667-115.072 133.290666-185.386667 22.314667-61.44 41.130667-113.365333 85.333334-113.365333 238.208 0 203.946667 255.274667 189.568 299.733333-2.944 8.96 8.96 10.538667 29.568 9.6 8.490667-0.426667 18.474667-1.28 29.482666-2.133333z m168.746667 167.082666c3.754667-50.261333-9.813333-63.701333-13.994667-67.456-8.448-7.509333-26.453333-15.232-60.714666-17.493333-28.629333-1.877333-57.301333 0.469333-86.058667 2.816l-14.762667 1.194667h-0.341333c-13.013333 1.024-34.346667 2.688-52.608 0.341333a101.333333 101.333333 0 0 1-53.546667-22.826667 90.197333 90.197333 0 0 1-29.354666-48.853333 92.16 92.16 0 0 1 2.389333-48.554667l0.853333-3.413333c0.554667-2.432 1.194667-5.717333 1.877334-9.813333 1.365333-8.149333 2.56-18.56 3.157333-30.336 1.237333-24.149333-0.426667-50.474667-6.954667-73.685334-6.4-22.912-16.341333-39.04-29.226666-49.621333-10.410667-8.533333-28.245333-18.048-60.629334-20.608-6.570667 12.672-12.8 29.738667-22.229333 55.68l-5.674667 15.573333c-19.114667 52.138667-50.816 138.24-125.312 192.256v485.973334c36.48 3.413333 82.858667 7.381333 131.925334 10.666666 55.68 3.797333 113.92 6.698667 164.821333 7.168 53.248 0.426667 90.922667-1.962667 109.525333-6.058666 43.776-9.685333 81.706667-53.845333 109.354667-141.824 26.154667-83.2 33.365333-176.085333 37.461333-230.485334v-0.64zM148.821333 426.666667v443.562666h128V426.666667h-128z" p-id="2372"></path></svg>